<svg width="219.3" height="84.2" viewBox="0 0 219.3 84.2" xmlns="http://www.w3.org/2000/svg"><g id="svgGroup" stroke-linecap="round" fill-rule="evenodd" font-size="9pt" stroke="#ea4c89" stroke-width="0.25mm" fill="#ea4c89" style="stroke:#ea4c89;stroke-width:0.25mm;fill:#ea4c89"><path d="M 136.3 35.7 C 136.3 34.5 135.3 33.5 134.1 33.5 C 133.133 33.5 132.727 33.78 132.159 34.522 A 9.593 9.593 0 0 0 132.1 34.6 A 92.767 92.767 0 0 1 130.764 36.25 A 50.047 50.047 0 0 1 119.6 46.5 C 119.4 44.5 119.1 42.4 119.1 40.3 A 3.802 3.802 0 0 1 119.13 39.824 C 119.496 36.921 123.031 34.018 123.099 27.88 A 16.232 16.232 0 0 0 123.1 27.7 C 123.1 26.6 123 25.5 122.5 24.5 A 8.597 8.597 0 0 0 122.566 23.692 C 122.681 20.232 120.524 17.9 116.9 17.9 C 108.861 17.9 99.417 28.046 97.324 36.41 A 13.221 13.221 0 0 0 96.9 39.6 C 96.9 44.4 100.1 47.6 104.9 47.6 C 108.2 47.6 111.4 46.2 114.1 44.4 C 114.3 46.1 114.6 47.7 114.8 49.3 A 153.123 153.123 0 0 0 111.756 51.277 C 106.79 54.599 101.059 59.005 98.031 64.253 A 14.643 14.643 0 0 0 95.9 71.6 A 10.65 10.65 0 0 0 95.915 72.164 A 12.908 12.908 0 0 0 107.8 84.2 A 12.632 12.632 0 0 0 118.715 77.338 C 120.718 73.967 121.777 69.846 121.89 66.157 A 21.444 21.444 0 0 0 121.9 65.5 C 121.9 60.8 120.9 56.3 120.2 51.7 A 39.717 39.717 0 0 0 121.161 51.065 C 125.252 48.287 135.254 40.724 136.224 36.35 A 3.006 3.006 0 0 0 136.3 35.7 Z M 39.2 35.8 A 2.391 2.391 0 0 0 38.377 33.944 C 38.055 33.681 37.648 33.516 37.171 33.501 A 2.276 2.276 0 0 0 37.1 33.5 A 1.993 1.993 0 0 0 35.687 34.177 C 34.072 35.791 32.978 39.906 30.844 42.266 A 4.672 4.672 0 0 1 27.3 44 A 3.778 3.778 0 0 1 24.558 42.626 C 23.162 41.132 22.252 38.749 21.8 37.2 A 125.948 125.948 0 0 0 22.797 35.077 C 25.872 28.368 28.946 20.063 29.65 12.636 A 32.224 32.224 0 0 0 29.8 9.6 C 29.8 6.5 29.2 0 24.9 0 A 4.917 4.917 0 0 0 21.214 1.946 C 17.409 6.304 15.792 16.763 15.4 20.6 A 4.74 4.74 0 0 0 15.019 20.54 C 14.738 20.507 14.475 20.501 14.183 20.5 A 56.465 56.465 0 0 0 14 20.5 A 9.785 9.785 0 0 0 7.052 23.981 C 2.564 28.744 0 37.262 0 42.2 C 0 45.975 1.356 50.259 5.396 50.914 A 6.886 6.886 0 0 0 6.5 51 C 11.1 51 15.5 46.8 18 43.4 A 11.916 11.916 0 0 0 25.815 49.209 A 7.838 7.838 0 0 0 27 49.3 C 32.837 49.3 36.761 43.062 38.62 38.02 A 27.446 27.446 0 0 0 39.1 36.6 A 0.862 0.862 0 0 0 39.174 36.35 C 39.19 36.247 39.196 36.133 39.199 36.015 A 11.025 11.025 0 0 0 39.2 35.8 Z M 169.5 35.9 A 2.635 2.635 0 0 0 169.207 34.653 C 168.897 34.074 168.352 33.68 167.632 33.611 A 2.419 2.419 0 0 0 167.4 33.6 A 1.887 1.887 0 0 0 166.231 34.068 C 163.684 36.085 161.573 44.044 157.822 46.363 A 3.984 3.984 0 0 1 155.7 47 A 2.532 2.532 0 0 1 153.203 45.154 C 151.517 40.877 154.142 30.591 148.033 29.754 A 6.137 6.137 0 0 0 147.2 29.7 C 143.507 29.7 140.083 32.928 137.693 35.563 A 57.624 57.624 0 0 0 137.3 36 A 29.781 29.781 0 0 1 137.303 35.608 C 137.344 32.532 137.728 24.4 134 24.4 A 3.184 3.184 0 0 0 131.633 25.421 A 3.196 3.196 0 0 0 130.8 27.6 C 130.8 29 131.2 30.489 131.467 31.978 A 12.685 12.685 0 0 1 131.7 34.2 A 17.536 17.536 0 0 1 131.685 34.855 C 131.587 37.418 130.992 43.344 129.9 44.8 C 129.4 45.5 128.8 46.4 128.8 47.2 A 1.93 1.93 0 0 0 129.106 48.267 C 129.637 49.089 130.762 49.475 131.706 49.499 A 3.687 3.687 0 0 0 131.8 49.5 C 134.297 49.5 140.559 37.095 144.65 35.233 A 2.311 2.311 0 0 1 145.6 35 C 146.3 35 146.5 35.7 146.6 36.2 A 17.896 17.896 0 0 1 146.962 38.484 C 147.572 44.438 146.624 52.5 154.9 52.5 C 161.003 52.5 166.834 43.406 169.009 37.966 A 22.687 22.687 0 0 0 169.3 37.2 C 169.386 36.856 169.472 36.439 169.494 36.074 A 2.838 2.838 0 0 0 169.5 35.9 Z M 85.2 34.9 A 2.158 2.158 0 0 0 84.828 33.648 C 84.572 33.285 84.188 33.026 83.697 32.935 A 2.188 2.188 0 0 0 83.3 32.9 A 1.937 1.937 0 0 0 81.746 33.729 A 3.209 3.209 0 0 0 81.5 34.1 C 80.1 36.5 78.6 38.7 76.6 40.7 A 12.873 12.873 0 0 0 73.934 35.336 C 71.886 32.705 69.097 30.377 66.892 28.351 A 59.271 59.271 0 0 1 66.3 27.8 C 67.1 25.4 68.1 22.6 68.1 20 A 5.243 5.243 0 0 0 67.871 18.338 C 67.629 17.626 67.167 17.084 66.351 16.884 A 3.151 3.151 0 0 0 65.6 16.8 A 3.62 3.62 0 0 0 63.121 17.939 C 61.32 19.658 60.142 22.941 59.933 25.067 A 6.513 6.513 0 0 0 59.9 25.7 C 59.9 26.9 60.1 28.1 60.6 29.2 A 19.809 19.809 0 0 1 60.088 30.331 C 59.15 32.264 57.9 34.417 57.9 36.5 A 2.349 2.349 0 0 0 58.036 37.324 C 58.293 38.014 58.909 38.4 59.8 38.4 A 1.906 1.906 0 0 0 60.961 37.936 C 62.341 36.857 63.469 34.183 64.1 33 A 63.063 63.063 0 0 0 64.131 33.026 C 66.37 34.904 70.79 38.351 71.724 41.546 A 4.114 4.114 0 0 1 71.9 42.7 A 6.888 6.888 0 0 1 71.863 43.422 C 71.821 43.816 71.741 44.209 71.607 44.556 A 2.795 2.795 0 0 1 71.5 44.8 C 69.9 46 67.7 46.7 65.7 46.7 A 6.768 6.768 0 0 1 64.457 46.585 C 62.486 46.218 61.203 45.1 60.2 45.1 A 2.171 2.171 0 0 0 58.148 46.923 A 2.427 2.427 0 0 0 58.1 47.4 C 58.1 51 63.5 52.6 66.4 52.6 A 9.162 9.162 0 0 0 68.292 52.394 C 71.342 51.749 74.393 49.648 75.8 47 A 11.659 11.659 0 0 0 76.654 46.408 C 79.42 44.322 83.912 39.561 84.971 36.21 A 4.404 4.404 0 0 0 85.2 34.9 Z M 219.3 36 C 219.3 34.9 218.3 34 217.2 34 C 214.479 34 213.209 40.586 209.678 43.52 A 5.603 5.603 0 0 1 206 44.9 A 3.166 3.166 0 0 1 204.647 44.621 C 202.958 43.835 202.527 41.536 202.501 39.678 A 13.089 13.089 0 0 1 202.5 39.5 A 9.359 9.359 0 0 1 202.52 38.945 C 202.659 36.695 203.479 31.203 204.3 30.2 A 26.628 26.628 0 0 0 204.744 29.698 C 205.305 29.042 205.731 28.415 205.86 27.557 A 3.749 3.749 0 0 0 205.9 27 A 2.99 2.99 0 0 0 204.847 24.658 A 2.153 2.153 0 0 0 203.5 24.2 A 2.736 2.736 0 0 0 202.108 24.551 C 199.605 25.984 199.775 31.344 195.375 32.028 A 6.342 6.342 0 0 1 194.4 32.1 C 194.2 32.1 194 32 193.7 32 C 194.751 29.634 196.187 27.115 196.526 24.509 A 8.586 8.586 0 0 0 196.6 23.4 A 2.752 2.752 0 0 0 196.559 22.936 C 196.396 21.982 195.75 21.029 194.846 20.711 A 1.939 1.939 0 0 0 194.2 20.6 C 190.69 20.6 188.131 29.153 188.005 32.27 A 5.688 5.688 0 0 0 188 32.5 A 4.914 4.914 0 0 0 188.1 33.546 A 3.58 3.58 0 0 0 188.4 34.4 C 188.161 34.878 187.922 35.483 187.835 36.013 A 2.401 2.401 0 0 0 187.8 36.4 A 2.008 2.008 0 0 0 189.139 38.204 C 189.366 38.298 189.605 38.36 189.845 38.386 A 2.355 2.355 0 0 0 190.1 38.4 A 2.225 2.225 0 0 0 191.962 37.265 A 2.706 2.706 0 0 0 192 37.2 A 6.869 6.869 0 0 0 192.813 37.263 C 194.655 37.294 196.239 36.562 197.9 35.6 C 197.6 37.4 197.5 39.3 197.5 41.1 A 13.957 13.957 0 0 0 198.449 46.567 C 199.428 48.821 201.277 50.4 204.5 50.4 A 12.822 12.822 0 0 0 213.398 46.16 C 215.88 43.67 217.787 40.436 218.846 37.461 A 20.125 20.125 0 0 0 219.1 36.7 A 2.051 2.051 0 0 0 219.165 36.556 C 219.236 36.38 219.296 36.172 219.3 36.017 A 0.634 0.634 0 0 0 219.3 36 Z M 62.2 35.5 A 2.243 2.243 0 0 0 61.443 33.799 A 2.032 2.032 0 0 0 60.1 33.3 A 3.498 3.498 0 0 0 59.735 33.317 C 59.122 33.382 58.879 33.635 58.476 34.166 A 53.967 53.967 0 0 0 58.3 34.4 A 115.348 115.348 0 0 1 57.1 35.979 C 54.333 39.54 50.974 43.1 46.1 43.1 A 6.163 6.163 0 0 1 43.343 42.494 C 42.052 41.856 41.092 40.739 40.527 39.271 A 8.124 8.124 0 0 1 40.2 38.2 A 9.277 9.277 0 0 0 40.49 38.186 C 46.295 37.807 52.1 32.002 52.1 26.1 A 7.026 7.026 0 0 0 51.396 22.92 C 50.528 21.206 48.883 20.1 46.6 20.1 A 10.643 10.643 0 0 0 37.907 25.395 C 36.064 28.134 34.941 31.532 34.666 34.572 A 15.892 15.892 0 0 0 34.6 36 A 13.437 13.437 0 0 0 38.104 45.325 C 39.93 47.21 42.427 48.4 45.5 48.4 C 51.694 48.4 58.24 43.028 61.336 37.655 A 18.075 18.075 0 0 0 61.9 36.6 A 1.796 1.796 0 0 0 62.154 35.963 A 2.335 2.335 0 0 0 62.2 35.5 Z M 192.6 35.5 A 2.243 2.243 0 0 0 191.843 33.799 A 2.032 2.032 0 0 0 190.5 33.3 A 3.498 3.498 0 0 0 190.135 33.317 C 189.522 33.382 189.279 33.635 188.876 34.166 A 53.967 53.967 0 0 0 188.7 34.4 A 115.348 115.348 0 0 1 187.5 35.979 C 184.733 39.54 181.374 43.1 176.5 43.1 A 6.163 6.163 0 0 1 173.743 42.494 C 172.452 41.856 171.492 40.739 170.927 39.271 A 8.124 8.124 0 0 1 170.6 38.2 A 9.277 9.277 0 0 0 170.89 38.186 C 176.695 37.807 182.5 32.002 182.5 26.1 A 7.026 7.026 0 0 0 181.796 22.92 C 180.928 21.206 179.283 20.1 177 20.1 A 10.643 10.643 0 0 0 168.307 25.395 C 166.464 28.134 165.341 31.532 165.066 34.572 A 15.892 15.892 0 0 0 165 36 A 13.437 13.437 0 0 0 168.504 45.325 C 170.33 47.21 172.827 48.4 175.9 48.4 C 182.094 48.4 188.64 43.028 191.736 37.655 A 18.075 18.075 0 0 0 192.3 36.6 A 1.796 1.796 0 0 0 192.554 35.963 A 2.335 2.335 0 0 0 192.6 35.5 Z M 100.159 33.405 A 2.357 2.357 0 0 0 100 33.4 A 2.47 2.47 0 0 0 98.358 34.158 A 4.391 4.391 0 0 0 97.8 34.8 A 83.728 83.728 0 0 1 97.265 35.757 C 95.429 38.984 91.703 44.942 88.2 45.375 A 3.254 3.254 0 0 1 87.8 45.4 A 2.585 2.585 0 0 1 86.871 45.244 C 85.415 44.687 85.308 42.754 85.301 41.247 A 66.993 66.993 0 0 1 85.3 40.9 A 20.539 20.539 0 0 1 85.518 38.089 C 86.017 34.509 87.2 30.788 87.2 28.5 A 2.8 2.8 0 0 0 86.628 26.754 C 86.273 26.307 85.762 25.998 85.124 25.919 A 2.663 2.663 0 0 0 84.8 25.9 A 2.835 2.835 0 0 0 82.476 27.319 C 80.187 30.61 80 38.675 80 41.2 A 22.143 22.143 0 0 0 80.014 41.996 C 80.15 45.769 81.307 49.542 85.117 50.344 A 7.67 7.67 0 0 0 86.7 50.5 C 88.9 50.5 91.1 49.7 92.9 48.4 A 19.831 19.831 0 0 0 93.898 47.575 C 97.09 44.774 102.1 39.006 102.1 35.5 C 102.1 34.354 101.278 33.481 100.159 33.405 Z M 116.869 67.317 A 41.055 41.055 0 0 0 116.9 65.7 C 116.9 61.9 116.3 58.2 115.6 54.5 A 75.086 75.086 0 0 0 114.981 54.869 C 111.221 57.133 106.091 60.681 103.083 64.877 A 11.682 11.682 0 0 0 100.6 71.6 C 100.6 75.6 104.5 79.5 108.5 79.5 A 5.102 5.102 0 0 0 110.084 79.241 C 112.474 78.464 114.429 76.078 115.5 74.1 C 116.459 72.261 116.78 69.591 116.869 67.317 Z M 113.829 37.658 A 51.996 51.996 0 0 0 113.8 38.5 C 111.8 40.5 108.9 42.6 105.9 42.6 C 103.7 42.6 102.1 41.7 102.1 39.3 A 10.361 10.361 0 0 1 102.418 36.869 C 103.743 31.428 108.997 24.674 114.252 23.126 A 7.603 7.603 0 0 1 116.4 22.8 A 8.805 8.805 0 0 1 116.795 22.806 C 117.398 22.833 118 22.982 118 23.8 C 115.597 29.952 114.118 30.93 113.829 37.658 Z M 15.1 26.4 L 15.1 26.8 C 15.1 30.6 15.2 34.1 16.1 37.8 C 14.686 39.968 11.14 45.157 8.309 45.745 A 2.498 2.498 0 0 1 7.8 45.8 A 1.953 1.953 0 0 1 6.64 45.443 C 5.635 44.73 5.3 43.082 5.221 41.777 A 11.159 11.159 0 0 1 5.2 41.1 C 5.2 37.273 9.341 26.029 13.182 25.612 A 2.019 2.019 0 0 1 13.4 25.6 C 14.1 25.6 14.5 26 15.1 26.4 Z M 20.3 29.2 A 67.06 67.06 0 0 0 21.081 27.296 C 23.157 22.01 24.9 15.63 24.9 10.2 C 24.9 8.7 24.8 7.2 24.5 5.8 A 13.202 13.202 0 0 0 24.035 6.617 C 21.697 11.068 20.566 18.679 20.276 24.243 A 53.609 53.609 0 0 0 20.2 27 A 10.485 10.485 0 0 0 20.204 27.296 C 20.223 27.975 20.3 28.588 20.3 29.2 Z M 91.6 15.5 A 5.537 5.537 0 0 0 91.577 14.997 C 91.413 13.196 90.365 11.396 88.361 11.304 A 3.523 3.523 0 0 0 88.2 11.3 A 4.577 4.577 0 0 0 84.297 13.747 C 83.556 14.954 83.136 16.428 83.028 17.738 A 8.092 8.092 0 0 0 83 18.4 C 83 20.3 84.5 21.4 86.3 21.4 A 5.48 5.48 0 0 0 91.345 17.231 C 91.485 16.758 91.57 16.269 91.593 15.781 A 5.807 5.807 0 0 0 91.6 15.5 Z M 47.121 28.041 A 3.637 3.637 0 0 0 47.2 27.3 A 2.162 2.162 0 0 0 47.187 27.077 C 47.103 26.279 46.616 24.8 45.8 24.8 A 3.906 3.906 0 0 0 43.131 25.951 C 41.28 27.663 40.213 30.885 40 32.8 C 40.4 32.9 40.8 33 41.2 33 C 43.655 33 46.605 30.521 47.121 28.041 Z M 177.521 28.041 A 3.637 3.637 0 0 0 177.6 27.3 A 2.162 2.162 0 0 0 177.587 27.077 C 177.503 26.279 177.016 24.8 176.2 24.8 A 3.906 3.906 0 0 0 173.531 25.951 C 171.68 27.663 170.613 30.885 170.4 32.8 C 170.8 32.9 171.2 33 171.6 33 C 174.055 33 177.005 30.521 177.521 28.041 Z" vector-effect="non-scaling-stroke"/></g></svg>